<?xml version="1.0" encoding="utf-8"?>
<!-- Generator: Adobe Illustrator 27.4.0, SVG Export Plug-In . SVG Version: 6.00 Build 0)  -->
<svg version="1.1" xmlns="http://www.w3.org/2000/svg" xmlns:xlink="http://www.w3.org/1999/xlink" x="0px" y="0px"
	 viewBox="0 0 262.73 412.17" style="enable-background:new 0 0 262.73 412.17;" xml:space="preserve">
<style type="text/css">
	.st0{fill:#C0A4FB;}
	.st1{fill:#D8FB94;}
	.st2{fill:url(#SVGID_1_);}
	.st3{fill:#EC34FD;}
	.st4{fill:#8512FD;}
	.st5{fill:none;stroke:#231815;stroke-width:5;stroke-miterlimit:10;}
</style>
<g id="레이어_4">
</g>
<g id="레이어_1">
</g>
<g id="레이어_3">
</g>
<g id="레이어_6">
	<g>
		<g>
			<path class="st3" d="M125.05,295.47c14.05-46.1,93.89-39.2,120.03-92.63c16.09-32.89,8.64-67.45,8.64-67.45
				c-1.64-7.62-8.72-11.06-15.72-7.64c0,0-74.53,36.37-133.56,83.13c-58.01,45.95-19.78,114.87-6.38,144.36
				c7.82,17.2,22.74,48.93,22.74,48.93c3.32,7.05,11.76,10.01,18.75,6.58c0,0,38.81-19.07,48.34-56.89
				c6.8-26.98-15.41-62.45-15.41-62.45c-4.14-6.61-11.89-7.53-17.24-2.05c-5.34,5.48-16.32,23.91-18.29,31.45l-5.6,21.43
				C126.12,331.42,119.54,313.55,125.05,295.47z"/>
		</g>
		<g>
			<path class="st4" d="M251.9,4.84c-2.85-4.7-9.06-6.25-13.78-3.43c0,0-31.94,19.01-80.18,45.37
				C128.71,62.74,3.19,118.43,0.1,199.12c-2.68,70.14,46.9,118.55,46.9,118.55c3.94,3.84,5.01,3.03,2.38-1.8
				c0,0-27.96-51.41,2.99-97.99c46.02-69.25,140.34-96.74,192.55-138.05C280.39,51.78,251.9,4.84,251.9,4.84z"/>
		</g>
	</g>
</g>
<g id="레이어_5">
</g>
</svg>
