<?xml version="1.0" encoding="utf-8"?>
<!-- Generator: Adobe Illustrator 27.4.0, SVG Export Plug-In . SVG Version: 6.00 Build 0)  -->
<svg version="1.1" xmlns="http://www.w3.org/2000/svg" xmlns:xlink="http://www.w3.org/1999/xlink" x="0px" y="0px"
	 viewBox="0 0 1389.55 1389.55" style="enable-background:new 0 0 1389.55 1389.55;" xml:space="preserve">
<style type="text/css">
	.st0{fill:#8512FD;}
	.st1{fill:url(#SVGID_1_);}
	.st2{fill:#EC34FD;}
	.st3{fill:url(#SVGID_00000015338218907820864890000002592896004885942662_);}
	.st4{fill:#FFFFFF;}
</style>
<g id="레이어_4">
</g>
<g id="레이어_1">
</g>
<g id="레이어_3">
</g>
<g id="레이어_6">
	<rect y="0" class="st0" width="1387.5" height="1387.5"/>
	<g>
		<path class="st4" d="M583.31,728.69c1.68,2.69,2.52,6.38,2.52,11.08c0,8.96-2.13,15.9-6.38,20.82
			c-9.18,11.2-19.31,20.76-30.39,28.71c-11.08,7.95-22.22,11.92-33.41,11.92c-14.55,0-25.13-5.15-31.73-15.45
			c-6.6-10.29-9.9-23.95-9.9-40.96c0-8.73,0.95-19.47,2.85-32.23c1.9-12.76,4.42-25.29,7.55-37.6c-22.39,0-48.91,1.01-79.57,3.02
			c-4.93,31.34-7.39,60.55-7.39,87.63c0,20.82,1.17,42.58,3.53,65.31c2.35,22.72,5.88,34.08,10.58,34.08
			c2.23,0,4.59-3.92,7.05-11.75c2.46-7.84,4.48-18.58,6.04-32.23c1.56-13.66,2.35-28.76,2.35-45.33c0-18.13-1.01-37.71-3.02-58.76
			c-0.45-6.26,0.61-10.91,3.19-13.93c2.57-3.02,6.43-4.53,11.58-4.53c4.7,0,8.17,1.23,10.41,3.69c2.23,2.47,3.58,6.61,4.03,12.42
			c1.12,16.34,1.68,35.82,1.68,58.42c0,36.48-4.42,67.71-13.26,93.68c-8.85,25.96-22.55,38.95-41.13,38.95
			c-15.9,0-27.31-11.47-34.25-34.42c-6.94-22.95-10.41-57.36-10.41-103.25c0-27.08,2.12-56.07,6.38-86.96
			c-1.57,0.23-3.58,0.33-6.04,0.33c-6.94,0-11.58-1.23-13.93-3.69c-2.35-2.46-3.53-6.26-3.53-11.42c0-5.59,1.51-10.07,4.53-13.43
			c3.02-3.36,8.78-5.37,17.29-6.04c1.56-0.22,4.03-0.34,7.39-0.34c6.04-30.22,13.77-57.64,23.17-82.26
			c9.4-24.62,20.15-44.15,32.23-58.59c12.09-14.44,24.85-21.66,38.28-21.66c10.52,0,18.63,4.09,24.34,12.25
			c5.71,8.17,8.56,18.63,8.56,31.39c0,44.99-18.13,83.27-54.39,114.83c27.31-1.12,49.36-1.68,66.15-1.68
			c6.26,0,11.42,1.18,15.44,3.53c4.03,2.35,6.04,6.88,6.04,13.6c0,4.48-0.73,11.31-2.18,20.48c-1.46,9.18-3.08,18.36-4.87,27.53
			c-4.03,19.03-6.04,31.56-6.04,37.6c0,6.72,0.89,11.87,2.69,15.45c1.79,3.58,4.81,5.37,9.07,5.37c3.8,0,8.67-2.63,14.61-7.89
			c5.93-5.26,14.72-14.27,26.36-27.03c2.69-3.13,5.71-4.7,9.07-4.7C579.33,724.66,581.63,726,583.31,728.69z M434.74,551.07
			c-8.28,23.28-15.78,51.49-22.5,84.61c11.19-7.83,20.53-17.57,28.04-29.21c7.5-11.64,13.09-23.67,16.79-36.09
			c3.69-12.42,5.54-23.89,5.54-34.42c0-13.2-2.47-19.81-7.39-19.81C449.85,516.15,443.02,527.79,434.74,551.07z M499.2,614.36
			c-4.7-4.36-7.05-10.46-7.05-18.3c0-7.83,3.07-14.38,9.23-19.64c6.15-5.26,13.82-7.89,23-7.89c8.28,0,14.99,2.01,20.15,6.04
			c5.15,4.03,7.72,9.74,7.72,17.12c0,8.96-2.91,16.06-8.73,21.32c-5.82,5.26-13.55,7.89-23.17,7.89
			C510.96,620.91,503.9,618.73,499.2,614.36z"/>
		<path class="st4" d="M692.77,728.69c1.68,2.69,2.52,6.38,2.52,11.08c0,8.96-2.13,15.9-6.38,20.82
			c-9.63,11.87-20.09,21.6-31.39,29.21c-11.31,7.61-24.12,11.42-38.44,11.42c-19.7,0-34.31-8.95-43.82-26.86
			c-9.52-17.91-14.27-41.07-14.27-69.5c0-27.31,3.53-58.42,10.58-93.34c7.05-34.92,17.46-64.91,31.23-89.98
			c13.77-25.07,30.16-37.61,49.19-37.61c10.74,0,19.19,4.98,25.35,14.94c6.15,9.96,9.23,24.23,9.23,42.81
			c0,26.64-7.39,57.53-22.16,92.67c-14.77,35.14-34.81,69.95-60.1,104.42c1.56,9.18,4.14,15.73,7.72,19.64
			c3.58,3.92,8.28,5.88,14.1,5.88c9.18,0,17.23-2.63,24.17-7.89c6.94-5.26,15.78-14.27,26.52-27.03c2.69-3.13,5.71-4.7,9.07-4.7
			C688.79,724.66,691.09,726,692.77,728.69z M627.13,545.03c-6.49,18.58-12.2,41.63-17.12,69.17c-4.93,27.53-7.61,53.95-8.06,79.24
			c15.89-26.19,28.54-52.43,37.94-78.74c9.4-26.3,14.1-50.31,14.1-72.02c0-17.01-3.14-25.52-9.4-25.52
			C639.43,517.16,633.62,526.45,627.13,545.03z"/>
		<path class="st4" d="M802.22,728.69c1.68,2.69,2.52,6.38,2.52,11.08c0,8.96-2.13,15.9-6.38,20.82
			c-9.63,11.87-20.09,21.6-31.39,29.21c-11.31,7.61-24.12,11.42-38.45,11.42c-19.7,0-34.3-8.95-43.82-26.86
			c-9.52-17.91-14.27-41.07-14.27-69.5c0-27.31,3.53-58.42,10.58-93.34s17.46-64.91,31.23-89.98
			c13.77-25.07,30.16-37.61,49.19-37.61c10.74,0,19.19,4.98,25.35,14.94c6.15,9.96,9.23,24.23,9.23,42.81
			c0,26.64-7.39,57.53-22.16,92.67c-14.77,35.14-34.81,69.95-60.1,104.42c1.56,9.18,4.14,15.73,7.72,19.64
			c3.58,3.92,8.28,5.88,14.1,5.88c9.17,0,17.23-2.63,24.17-7.89c6.94-5.26,15.78-14.27,26.53-27.03c2.69-3.13,5.71-4.7,9.07-4.7
			C798.24,724.66,800.54,726,802.22,728.69z M736.58,545.03c-6.5,18.58-12.2,41.63-17.12,69.17c-4.93,27.53-7.61,53.95-8.06,79.24
			c15.89-26.19,28.54-52.43,37.94-78.74c9.4-26.3,14.1-50.31,14.1-72.02c0-17.01-3.14-25.52-9.4-25.52
			C748.89,517.16,743.07,526.45,736.58,545.03z"/>
		<path class="st4" d="M813.3,800.54c-6.16-5.37-9.23-11.42-9.23-18.13c0-5.82,2.12-10.85,6.38-15.11
			c4.25-4.25,10.52-6.38,18.8-6.38c2.91,0,6.32,0.28,10.24,0.84c3.91,0.56,6.88,0.95,8.9,1.17c-0.23-5.82-1.51-11.3-3.86-16.45
			c-2.35-5.15-5.32-10.12-8.9-14.94c-3.58-4.81-6.94-9.01-10.07-12.59c-6.94,13.21-13.82,24.17-20.65,32.9
			c-6.83,8.73-14.27,17.01-22.33,24.85c-4.03,4.03-8.28,6.04-12.76,6.04c-3.58,0-6.49-1.29-8.73-3.86
			c-2.23-2.57-3.36-5.76-3.36-9.57c0-4.47,1.57-8.61,4.7-12.42l4.37-5.37c12.31-15.22,21.6-27.75,27.87-37.61
			c3.8-6.49,8.28-15.16,13.43-26.02c5.15-10.85,10.18-22.1,15.11-33.74c4.25-9.85,13.09-14.77,26.53-14.77
			c6.26,0,10.63,0.56,13.09,1.68c2.46,1.12,3.69,2.91,3.69,5.37c0,1.34-0.45,3.47-1.34,6.38c-0.9,2.91-2.13,5.82-3.69,8.73
			c-4.03,8.06-6.04,14.89-6.04,20.48c0,3.36,1.17,7.05,3.53,11.08s5.99,9.07,10.91,15.11c7.16,9.4,12.59,17.41,16.28,24.01
			c3.69,6.6,5.54,13.82,5.54,21.66c0,2.24-0.23,5.37-0.67,9.4c10.96-4.25,23.84-15.56,38.61-33.91c2.69-3.13,5.71-4.7,9.07-4.7
			c2.91,0,5.2,1.34,6.88,4.03c1.68,2.69,2.52,6.38,2.52,11.08c0,8.51-2.13,15.45-6.38,20.82c-11.2,13.88-21.88,23.33-32.06,28.37
			c-10.19,5.04-22.78,7.78-37.77,8.23c-8.96,7.61-19.59,11.42-31.9,11.42C828.35,808.6,819.45,805.91,813.3,800.54z"/>
		<path class="st4" d="M928.46,786.1c-7.95-10.07-11.92-23.28-11.92-39.62c0-17.91,4.14-34.86,12.42-50.87
			c8.28-16,19.31-28.88,33.07-38.61c13.77-9.74,28.37-14.61,43.82-14.61c4.92,0,8.23,0.95,9.91,2.85c1.68,1.9,3.07,5.32,4.2,10.24
			c4.25-0.89,8.95-1.34,14.1-1.34c5.37,0,9.51,1.34,12.42,4.03c2.91,2.69,4.37,6.49,4.37,11.42c0,5.15-1.12,14.1-3.36,26.86
			c-2.47,13.66-4.37,26.69-5.71,39.12c-1.34,12.42-2.01,26.36-2.01,41.8c0,8.51-1.74,14.61-5.2,18.3
			c-3.47,3.69-9.12,5.54-16.96,5.54c-7.61,0-13.26-1.85-16.96-5.54s-5.54-9.68-5.54-17.96l0.34-5.37
			c-6.94,19.25-18.92,28.88-35.93,28.88C946.76,801.21,936.4,796.18,928.46,786.1z M989.73,754.21c5.15-8.73,9.74-24.29,13.77-46.67
			l6.38-33.91c-9.18,0.23-17.69,3.75-25.52,10.58c-7.84,6.83-14.1,15.84-18.8,27.03c-4.7,11.2-7.05,23.06-7.05,35.59
			c0,6.71,1.29,11.81,3.86,15.28c2.57,3.47,5.99,5.21,10.24,5.21C978.88,767.3,984.58,762.94,989.73,754.21z"/>
	</g>
</g>
<g id="레이어_5">
</g>
</svg>
